<svg fill="#0000000D" height="350" viewBox="0 0 700 350" width="700"
	xmlns="http://www.w3.org/2000/svg"
	xmlns:xlink="http://www.w3.org/1999/xlink">
	<defs>
		<g id="a" transform="matrix(.0884828 -.06095482 .06095482 .0884828 -26.256105 187.952774)">
			<g id="XMLID_441_">
				<path id="XMLID_273_" d="m202.538 509.203c-23.564 0-47.124-8.754-65.095-26.279-8.501-8.29-15.249-17.943-20.057-28.692-12.438-27.812-34.605-49.979-62.417-62.417-10.749-4.807-20.402-11.555-28.692-20.057-35.129-36.027-35.021-94.545.241-130.448 14.346-14.607 32.603-23.911 52.796-26.908 11.488-1.705 21.703-6.828 29.54-14.814l.608-.614c21.855-21.855 53.027-31.422 87.772-26.937 33.3 4.299 66.126 21.154 92.433 47.461s43.163 59.133 47.461 92.433c4.485 34.746-5.081 65.917-26.937 87.773l-.552.548c-8.009 7.873-13.136 18.099-14.833 29.58-2.987 20.207-12.289 38.476-26.898 52.833-17.997 17.687-41.686 26.538-65.37 26.538zm-21.528-308.327c-19.49 0-37.304 6.281-50.335 19.312l-.403.407c-12.456 12.693-28.552 20.811-46.555 23.483-13.684 2.031-26.062 8.343-35.797 18.254-23.919 24.353-23.993 64.046-.165 88.482 5.636 5.78 12.184 10.361 19.461 13.616 34.557 15.455 62.1 42.998 77.555 77.555 3.255 7.278 7.836 13.826 13.615 19.461 24.443 23.835 64.142 23.755 88.495-.177 9.914-9.742 16.224-22.129 18.248-35.822 2.66-17.994 10.776-34.101 23.472-46.58l.377-.374c15.131-15.131 21.664-37.405 18.396-62.719-3.455-26.76-17.277-53.417-38.921-75.061-26.051-26.053-58.58-39.837-87.443-39.837z"/>
			</g>
			<g id="XMLID_481_">
				<path id="XMLID_270_" d="m302.428 154.533c-17.302 0-32.797-6.104-44.302-17.609-13.428-13.427-19.498-32.292-17.093-53.12 2.255-19.531 11.839-38.629 26.987-53.777 15.147-15.147 34.245-24.731 53.776-26.987 20.829-2.402 39.692 3.667 53.12 17.093 13.428 13.428 19.498 32.293 17.094 53.121-2.255 19.531-11.839 38.629-26.987 53.776-15.147 15.148-34.246 24.732-53.777 26.987-2.983.345-5.926.516-8.818.516zm28.051-121.999c-1.709 0-3.458.102-5.242.308-12.836 1.482-25.623 8.016-36.004 18.397-10.382 10.382-16.916 23.169-18.398 36.005-1.333 11.54 1.688 21.649 8.504 28.466 6.817 6.817 16.929 9.836 28.466 8.505 12.836-1.482 25.623-8.016 36.005-18.398s16.916-23.168 18.397-36.004c1.333-11.54-1.688-21.649-8.505-28.466-5.762-5.763-13.879-8.813-23.223-8.813z"/>
			</g>
			<g id="XMLID_483_">
				<path id="XMLID_267_" d="m101.05 162.166c-17.303 0-32.797-6.104-44.302-17.608-13.428-13.428-19.499-32.292-17.094-53.12 2.255-19.531 11.839-38.629 26.987-53.777 15.147-15.147 34.246-24.731 53.776-26.987 20.831-2.404 39.693 3.667 53.12 17.093 13.428 13.428 19.499 32.293 17.094 53.121-2.255 19.531-11.839 38.629-26.987 53.776-15.147 15.148-34.246 24.732-53.777 26.987-2.981.345-5.925.515-8.817.515zm28.051-121.998c-1.709 0-3.458.102-5.242.308-12.836 1.482-25.623 8.016-36.004 18.397-10.383 10.383-16.916 23.17-18.399 36.006-1.332 11.54 1.688 21.649 8.505 28.466 6.816 6.816 16.923 9.839 28.466 8.504 12.836-1.482 25.623-8.016 36.005-18.398s16.916-23.169 18.397-36.004c1.333-11.54-1.688-21.649-8.504-28.466-5.763-5.763-13.88-8.813-23.224-8.813z"/>
			</g>
			<g id="XMLID_84_">
				<path id="XMLID_242_" d="m421.633 273.738c-17.302 0-32.797-6.104-44.302-17.608-13.428-13.428-19.499-32.292-17.094-53.12 2.255-19.531 11.839-38.629 26.987-53.777 15.147-15.147 34.246-24.731 53.777-26.986 20.826-2.409 39.692 3.666 53.12 17.093s19.499 32.292 17.094 53.12c-2.255 19.531-11.839 38.629-26.986 53.777-15.148 15.147-34.247 24.731-53.777 26.987-2.983.343-5.927.514-8.819.514zm28.051-121.998c-1.709 0-3.458.102-5.242.308-12.836 1.482-25.623 8.016-36.005 18.398-10.382 10.382-16.916 23.168-18.398 36.004-1.332 11.54 1.688 21.649 8.505 28.466s16.928 9.84 28.466 8.504c12.836-1.482 25.623-8.016 36.005-18.397 10.382-10.382 16.916-23.169 18.397-36.005 1.333-11.54-1.688-21.649-8.504-28.466-5.763-5.763-13.879-8.812-23.224-8.812z"/>
			</g>
			<g id="XMLID_3_">
				<path id="XMLID_239_" d="m411.549 472.665c-17.302 0-32.797-6.104-44.302-17.608-13.428-13.428-19.499-32.292-17.094-53.12 2.255-19.531 11.839-38.629 26.987-53.777 15.147-15.147 34.246-24.731 53.777-26.986 20.826-2.408 39.692 3.666 53.12 17.093s19.499 32.292 17.094 53.12c-2.255 19.531-11.839 38.629-26.986 53.777-15.148 15.147-34.247 24.731-53.777 26.987-2.983.344-5.927.514-8.819.514zm28.051-121.997c-1.709 0-3.458.102-5.242.308-12.836 1.482-25.623 8.016-36.005 18.398-10.382 10.382-16.916 23.168-18.398 36.004-1.332 11.54 1.688 21.649 8.505 28.466 6.816 6.817 16.929 9.838 28.466 8.504 12.836-1.482 25.623-8.016 36.005-18.397 10.382-10.382 16.916-23.169 18.397-36.005 1.333-11.54-1.688-21.649-8.504-28.466-5.763-5.763-13.879-8.812-23.224-8.812z"/>
			</g>
		</g>
		<g id="b" transform="matrix(.12278117 -.04547451 .04547451 .12278117 149.932678 220.158539)">
			<path d="m467.534 112.088c-23.073-29.237-57.683-64.088-91.534-64.088-10.27 0-20.622 7.034-34.594 20.191-19.785-8.821-63.312-20.191-85.406-20.191-22.113 0-65.64 11.378-85.406 20.191-13.972-13.157-24.324-20.191-34.594-20.191-33.851 0-68.461 34.851-91.534 64.088-17.192 21.785-44.466 62.743-44.466 79.912 0 32.247 1.043 46.724 27.2 81.6 19.966 26.621 22.082 65.4 35.475 86.458 8.763 13.779 21.977 19.27 37.206 15.464 15.176-3.794 25.03-16.588 29.396-38.087 16.89 23.263 14.047 36.937 15.162 44.849 1.123 30.142 52.694 81.716 111.561 81.716 58.77 0 110.436-51.52 111.561-81.715 1.109-7.873-1.828-21.567 15.148-44.913 4.463 22.044 16.021 39.329 38.588 39.329 42.297 0 35.241-65.418 63.502-103.1 26.157-34.876 27.2-49.353 27.2-81.6.001-17.17-27.273-58.128-44.465-79.913zm-211.534 231.912c-8.33 0-18.196-12.575-22.268-20.516 11.83-4.646 32.698-4.648 44.535 0-4.071 7.941-13.937 20.516-22.267 20.516zm-.001 63.962c10.396 7.852 23.978 12.591 37.934 14.341-25.229 12.909-50.609 12.923-75.867 0 13.955-1.75 27.538-6.489 37.933-14.341zm203.201-153.562c-25.193 33.589-29.058 82.236-38.207 90.281-5.711-.52-7.822-17.966-8.331-23.682-2.622-29.497 3.338-71.64 3.338-96.999 0-43.279-32.313-108.404-33.689-111.155-3.952-7.904-13.564-11.106-21.466-7.156-7.904 3.952-11.107 13.563-7.156 21.466 8.431 16.862 30.311 67.13 30.311 96.845 0 16.692-3.052 43.399-3.821 69.035-8.651 7.456-44.179 40.656-44.179 82.965 0 19.833-55.647 19.892-65.865.533-.43-.816-1.023-1.751-1.658-2.544 24.039-7.67 43.523-37.929 43.523-53.989 0-42.948-112-42.948-112 0 0 16.054 19.418 46.297 43.523 53.989-.627.782-1.22 1.713-1.658 2.543-10.253 19.418-65.865 19.266-65.865-.532 0-42.309-35.528-75.509-44.179-82.965-.741-24.706-3.821-52.753-3.821-69.035 0-29.642 21.882-79.961 30.311-96.845 3.952-7.903.748-17.514-7.156-21.466-7.903-3.952-17.515-.748-21.466 7.156-1.376 2.751-33.689 67.876-33.689 111.155 0 25.372 5.958 67.523 3.337 96.999-.508 5.716-2.619 23.161-8.331 23.682-9.245-8.129-12.925-56.572-38.207-90.281-20.578-27.437-20.797-34.916-20.8-61.529 1.856-7.371 17.018-35.5 39.828-63.768 24.049-29.805 47.328-47.966 62.735-49.051 4.727 2.375 14.519 11.658 22.124 19.262 6.059 6.06 15.832 6.27 22.146.462 7.95-5.427 55.776-19.776 77.168-19.776s69.218 14.349 77.168 19.776c6.307 5.801 16.08 5.604 22.146-.462 13.201-13.201 19.307-17.838 22.126-19.262 15.407 1.087 38.685 19.249 62.732 49.051 22.81 28.268 37.972 56.397 39.828 63.768-.002 26.613-.222 34.092-20.8 61.529z"/>
			<circle cx="180" cy="212" r="20"/>
			<circle cx="332" cy="212" r="20"/>
		</g>
		<g id="c" transform="matrix(.12519453 .02911501 -.02911501 .12519453 226.403687 30.496746)">
			<g>
				<path d="M290.653,45.771c-6.561-6.56-15.388-10.286-24.479-10.625c-0.339-9.091-4.065-17.92-10.624-24.479
                C248.671,3.789,239.524,0,229.797,0s-18.873,3.789-25.752,10.667c-5.54,5.541-9.087,12.556-10.255,20.285
                c-3.502,23.188-14.534,45.061-31.063,61.59l-70.185,70.185c-16.529,16.529-38.402,27.562-61.591,31.063
                c-7.729,1.168-14.743,4.715-20.283,10.255C3.789,210.924,0,220.069,0,229.797s3.789,18.874,10.667,25.753
                c6.561,6.56,15.388,10.286,24.479,10.624c0.34,9.091,4.065,17.919,10.625,24.479c6.879,6.879,16.024,10.668,25.752,10.668
                s18.874-3.789,25.753-10.667c5.541-5.542,9.087-12.557,10.254-20.285c3.554-23.523,14.295-44.821,31.063-61.589l70.186-70.186
                c16.768-16.769,38.065-27.51,61.588-31.063c7.729-1.167,14.744-4.713,20.286-10.254c6.878-6.879,10.667-16.025,10.667-25.753
                S297.531,52.65,290.653,45.771z M280.046,86.669c-3.259,3.26-7.38,5.345-11.918,6.029c-26.715,4.036-50.905,16.238-69.956,35.288
                l-70.186,70.186c-19.05,19.051-31.252,43.241-35.288,69.957c-0.685,4.537-2.77,8.658-6.029,11.917
                c-4.045,4.046-9.424,6.274-15.146,6.274c-5.721,0-11.1-2.229-15.145-6.274c-5.375-5.374-7.478-12.993-5.626-20.38
                c0.642-2.558-0.107-5.264-1.971-7.128c-1.425-1.424-3.339-2.196-5.304-2.196c-0.607,0-1.22,0.074-1.824,0.226
                c-7.386,1.85-15.006-0.251-20.38-5.625C17.229,240.897,15,235.519,15,229.797c0-5.721,2.229-11.1,6.274-15.145
                c3.259-3.26,7.38-5.345,11.918-6.03c26.333-3.978,51.178-16.51,69.957-35.288l70.185-70.185
                c18.778-18.779,31.311-43.624,35.288-69.956c0.686-4.539,2.771-8.66,6.03-11.92c4.045-4.045,9.424-6.273,15.145-6.273
                c5.722,0,11.101,2.229,15.146,6.274c5.374,5.373,7.477,12.992,5.625,20.38c-0.642,2.558,0.107,5.264,1.971,7.128
                c1.864,1.864,4.567,2.612,7.128,1.971c7.389-1.852,15.006,0.251,20.381,5.626c4.045,4.045,6.273,9.424,6.273,15.145
                C286.32,77.245,284.092,82.624,280.046,86.669z"/>
			</g>
			<g>
				<circle cx="63.45" cy="217.518" r="6.933"/>
			</g>
			<g>
				<path d="M45.812,212.556c-12.036,0-21.828,9.792-21.828,21.828c0,4.143,3.357,7.5,7.5,7.5s7.5-3.357,7.5-7.5
                c0-3.765,3.063-6.828,6.828-6.828c4.143,0,7.5-3.357,7.5-7.5S49.954,212.556,45.812,212.556z"/>
			</g>
		</g>
		<g id="d" transform="matrix(.11718018 0 0 .11718018 294 290)">
			<path d="m256 329.767c13.271 0 24.066-10.796 24.066-24.066s-10.795-24.068-24.066-24.068c-13.27 0-24.066 10.796-24.066 24.067s10.796 24.067 24.066 24.067zm0-33.134c4.999 0 9.066 4.067 9.066 9.067 0 4.999-4.067 9.066-9.066 9.066s-9.066-4.067-9.066-9.066 4.067-9.067 9.066-9.067z"/>
			<path d="m322.267 362.9c13.271 0 24.066-10.796 24.066-24.066 0-13.271-10.796-24.067-24.066-24.067s-24.067 10.796-24.067 24.066 10.796 24.067 24.067 24.067zm0-33.133c4.999 0 9.066 4.067 9.066 9.067 0 4.999-4.067 9.066-9.066 9.066s-9.066-4.067-9.066-9.066c-.001-5 4.067-9.067 9.066-9.067z"/>
			<path d="m189.733 314.767c-13.27 0-24.066 10.796-24.066 24.067 0 13.27 10.796 24.066 24.066 24.066 13.271 0 24.066-10.796 24.066-24.066.001-13.271-10.795-24.067-24.066-24.067zm0 33.133c-4.999 0-9.066-4.067-9.066-9.066s4.067-9.067 9.066-9.067 9.066 4.067 9.066 9.067c.001 4.998-4.067 9.066-9.066 9.066z"/>
			<path d="m226.98 369.243-.611 1.501c-4.23 10.388-9.845 19.727-16.684 27.759l-5.197 6.102c-4.535 5.325-6.534 12.876-5.348 20.199 1.122 6.928 4.903 12.799 10.374 16.109 10.628 6.429 23.317 6.428 33.941 0l3.09-1.869c5.852-3.539 12.562-3.539 18.414 0l3.09 1.869c5.314 3.215 11.143 4.822 16.972 4.822 5.827 0 11.656-1.607 16.967-4.82l.499-.302c5.357-3.24 9.114-8.977 10.311-15.738 1.291-7.291-.487-14.609-4.879-20.079l-7.603-9.469c-5.83-7.263-10.715-15.54-14.517-24.602l-.784-1.87c-5.448-12.991-16.564-21.047-29.081-20.955-12.525.065-23.619 8.244-28.954 21.343zm13.282 7.158.611-1.501c3.046-7.48 8.706-11.966 15.139-12h.072c6.368 0 12.008 4.39 15.099 11.757l.784 1.871c4.344 10.352 9.945 19.836 16.651 28.19l7.604 9.469c1.659 2.066 2.334 5.085 1.805 8.074-.437 2.467-1.672 4.53-3.301 5.516l-.499.302c-5.852 3.539-12.562 3.539-18.414 0l-3.09-1.869c-5.313-3.215-11.142-4.822-16.971-4.822-5.828 0-11.658 1.608-16.971 4.822l-3.09 1.869c-5.852 3.539-12.562 3.539-18.414 0-1.674-1.013-2.92-3.134-3.331-5.674-.492-3.036.241-6.055 1.961-8.074l5.197-6.102c7.877-9.25 14.323-19.958 19.158-31.828z"/>
			<path d="m487.934 49.7h-75.334v-.784c0-8.703-7.08-15.783-15.783-15.783h-16.567c-8.703 0-15.783 7.08-15.783 15.783v.784h-18.134v-9.067c0-13.27-10.796-24.066-24.066-24.066h-132.534c-13.27 0-24.066 10.796-24.066 24.066v9.067h-89.325c-4.143 0-7.5 3.358-7.5 7.5s3.357 7.5 7.5 7.5h89.325v84.4h-141.601c-4.999 0-9.066-4.067-9.066-9.067v-66.266c0-4.999 4.067-9.066 9.066-9.066h22.275c4.143 0 7.5-3.358 7.5-7.5s-3.357-7.5-7.5-7.5h-22.275c-13.27-.001-24.066 10.796-24.066 24.066v66.267c0 13.27 10.796 24.067 24.066 24.067h141.601v9.066c0 13.27 10.796 24.067 24.066 24.067h43.979c-1.143 2.8-1.779 5.86-1.779 9.066v16.567c0 3.896.936 7.575 2.587 10.834-18.141 2.977-35.465 9.702-50.952 19.913-3.459 2.28-4.414 6.932-2.134 10.39 2.282 3.458 6.932 4.412 10.39 2.133 19.056-12.564 41.247-19.204 64.176-19.204 64.376 0 116.75 52.374 116.75 116.75s-52.374 116.75-116.75 116.75-116.75-52.374-116.75-116.75c0-29.445 10.994-57.566 30.956-79.184 2.811-3.043 2.621-7.788-.422-10.598s-7.786-2.621-10.598.421c-22.529 24.397-34.936 56.132-34.936 89.36 0 72.647 59.102 131.75 131.75 131.75s131.75-59.103 131.75-131.75c0-65.332-47.803-119.701-110.267-129.989 1.648-3.257 2.583-6.934 2.583-10.827v-16.566c0-3.206-.635-6.266-1.779-9.066h43.979c13.271 0 24.066-10.796 24.066-24.067v-9.067h18.134v.783c0 8.703 7.08 15.783 15.783 15.783h16.566c8.703 0 15.783-7.08 15.783-15.783v-.783h75.334c13.271 0 24.066-10.796 24.066-24.067v-66.266c.002-13.271-10.794-24.067-24.064-24.067zm-108.467 31.567h18.133v51.267h-18.133zm0-32.35c0-.432.352-.783.783-.783h16.566c.432 0 .783.352.783.783v17.35h-18.133v-17.35zm-114.401 157.383v16.567c0 4.999-4.067 9.066-9.066 9.066s-9.066-4.067-9.066-9.066v-16.567c0-4.999 4.067-9.066 9.066-9.066s9.066 4.067 9.066 9.066zm57.201-24.067h-132.534c-4.999 0-9.066-4.067-9.066-9.067v-132.533c0-4.999 4.067-9.066 9.066-9.066h132.533c4.999 0 9.066 4.067 9.066 9.066v9.067h-108.465c-13.271 0-24.067 10.796-24.067 24.066v66.267c0 13.27 10.797 24.067 24.067 24.067h108.466v9.066c0 5-4.067 9.067-9.066 9.067zm-99.4-33.133c-5 0-9.067-4.067-9.067-9.067v-66.266c0-4.999 4.067-9.066 9.067-9.066h141.6v84.4h-141.6zm174.733 15.783c0 .432-.352.783-.783.783h-16.567c-.432 0-.783-.352-.783-.783v-17.35h18.133zm99.4-24.85c0 4.999-4.067 9.067-9.066 9.067h-75.334v-84.4h75.334c4.999 0 9.066 4.067 9.066 9.066z"/>
			<path d="m305.7 82.834h-49.7c-13.27 0-24.066 10.796-24.066 24.066 0 13.271 10.796 24.067 24.066 24.067h49.7c13.271 0 24.066-10.796 24.066-24.067.001-13.27-10.795-24.066-24.066-24.066zm0 33.133h-49.7c-4.999 0-9.066-4.067-9.066-9.067 0-4.999 4.067-9.066 9.066-9.066h49.7c4.999 0 9.066 4.067 9.066 9.066.001 4.999-4.067 9.067-9.066 9.067z"/>
			<path d="m131.75 114.4c4.143 0 7.5-3.358 7.5-7.5s-3.357-7.5-7.5-7.5h-8.283c-4.143 0-7.5 3.358-7.5 7.5s3.357 7.5 7.5 7.5z"/>
			<path d="m49.7 106.9c0 4.142 3.357 7.5 7.5 7.5h8.283c4.143 0 7.5-3.358 7.5-7.5s-3.357-7.5-7.5-7.5h-8.283c-4.142 0-7.5 3.358-7.5 7.5z"/>
			<path d="m454.8 99.4h-8.283c-4.143 0-7.5 3.358-7.5 7.5s3.357 7.5 7.5 7.5h8.283c4.143 0 7.5-3.358 7.5-7.5s-3.358-7.5-7.5-7.5z"/>
		</g>
		<g id="e" transform="matrix(.13658373 -.01422747 .01422747 .13658373 58.353432 -12.071168)">
			<path d="m497.451 111.422h-482.451c-8.284 0-15 6.716-15 15v60.405c0 8.284 6.716 15 15 15h12.155v16.57c0 70.226 31.564 135.604 86.6 179.371 2.654 2.11 5.945 3.26 9.337 3.26h266.268c3.392 0 6.683-1.149 9.337-3.26 55.035-43.768 86.6-109.146 86.6-179.371v-16.57h12.155c8.284 0 15-6.716 15-15v-60.405c-.001-8.284-6.717-15-15.001-15zm-467.451 30h452.451v30.405h-452.451zm425.296 76.976c0 59.307-25.914 114.643-71.278 152.631h-255.584c-45.364-37.988-71.278-93.324-71.278-152.631v-16.57h398.141v16.57z"/>
			<path d="m256.226 341.432c24.814 0 45-20.186 45-45 0-10.362-5.663-23.064-17.822-39.971-7.882-10.961-15.685-19.682-16.014-20.048-2.845-3.17-6.904-4.982-11.164-4.982s-8.319 1.812-11.164 4.982c-.328.366-8.132 9.087-16.014 20.048-12.159 16.907-17.822 29.608-17.822 39.971 0 24.814 20.186 45 45 45zm.006-71.347c8.485 11.304 14.826 22.146 14.994 26.364-.009 8.264-6.734 14.983-15 14.983-8.271 0-15-6.728-15-14.975.16-4.197 6.51-15.048 15.006-26.372z"/>
		</g>
		<pattern id="g" height="350" patternUnits="userSpaceOnUse" width="350">
			<use x="-350" xlink:href="#a" y="-350"/>
			<use xlink:href="#a" y="-350"/>
			<use x="350" xlink:href="#a" y="-350"/>
			<use x="-350" xlink:href="#a"/>
			<use xlink:href="#a"/>
			<use x="350" xlink:href="#a"/>
			<use x="-350" xlink:href="#a" y="350"/>
			<use xlink:href="#a" y="350"/>
			<use x="350" xlink:href="#a" y="350"/>
		</pattern>
		<pattern id="h" height="350" patternUnits="userSpaceOnUse" width="350">
			<use x="-350" xlink:href="#b" y="-350"/>
			<use xlink:href="#b" y="-350"/>
			<use x="350" xlink:href="#b" y="-350"/>
			<use x="-350" xlink:href="#b"/>
			<use xlink:href="#b"/>
			<use x="350" xlink:href="#b"/>
			<use x="-350" xlink:href="#b" y="350"/>
			<use xlink:href="#b" y="350"/>
			<use x="350" xlink:href="#b" y="350"/>
		</pattern>
		<pattern id="i" height="350" patternUnits="userSpaceOnUse" width="350">
			<use x="-350" xlink:href="#c" y="-350"/>
			<use xlink:href="#c" y="-350"/>
			<use x="350" xlink:href="#c" y="-350"/>
			<use x="-350" xlink:href="#c"/>
			<use xlink:href="#c"/>
			<use x="350" xlink:href="#c"/>
			<use x="-350" xlink:href="#c" y="350"/>
			<use xlink:href="#c" y="350"/>
			<use x="350" xlink:href="#c" y="350"/>
		</pattern>
		<pattern id="j" height="350" patternUnits="userSpaceOnUse" width="350">
			<use x="-350" xlink:href="#d" y="-350"/>
			<use xlink:href="#d" y="-350"/>
			<use x="350" xlink:href="#d" y="-350"/>
			<use x="-350" xlink:href="#d"/>
			<use xlink:href="#d"/>
			<use x="350" xlink:href="#d"/>
			<use x="-350" xlink:href="#d" y="350"/>
			<use xlink:href="#d" y="350"/>
			<use x="350" xlink:href="#d" y="350"/>
		</pattern>
		<pattern id="k" height="350" patternUnits="userSpaceOnUse" width="350">
			<use x="-350" xlink:href="#e" y="-350"/>
			<use xlink:href="#e" y="-350"/>
			<use x="350" xlink:href="#e" y="-350"/>
			<use x="-350" xlink:href="#e"/>
			<use xlink:href="#e"/>
			<use x="350" xlink:href="#e"/>
			<use x="-350" xlink:href="#e" y="350"/>
			<use xlink:href="#e" y="350"/>
			<use x="350" xlink:href="#e" y="350"/>
		</pattern>
		<pattern id="l" height="350" patternUnits="userSpaceOnUse" width="350">
			<use x="-350" xlink:href="#f" y="-350"/>
			<use xlink:href="#f" y="-350"/>
			<use x="350" xlink:href="#f" y="-350"/>
			<use x="-350" xlink:href="#f"/>
			<use xlink:href="#f"/>
			<use x="350" xlink:href="#f"/>
			<use x="-350" xlink:href="#f" y="350"/>
			<use xlink:href="#f" y="350"/>
			<use x="350" xlink:href="#f" y="350"/>
		</pattern>
	</defs>
	<rect fill="url(#g)" height="100%" width="100%"/>
	<rect fill="url(#h)" height="100%" width="100%"/>
	<rect fill="url(#i)" height="100%" width="100%"/>
	<rect fill="url(#j)" height="100%" width="100%"/>
	<rect fill="url(#k)" height="100%" width="100%"/>
	<rect fill="url(#l)" height="100%" width="100%"/>
</svg>